<svg aria-hidden="true" style="position: absolute; width: 0; height: 0; overflow: hidden;" version="1.1" xmlns="http://www.w3.org/2000/svg" xmlns:xlink="http://www.w3.org/1999/xlink">
<defs>
<symbol id="audio" viewBox="0 0 42 32">
<path stroke-linejoin="round" stroke-linecap="round" stroke-miterlimit="10" stroke-width="1.6" d="M30.317 23.565c2.102-1.94 3.395-4.608 3.395-7.518s-1.293-5.578-3.395-7.437"></path>
<path stroke-linejoin="round" stroke-linecap="round" stroke-miterlimit="10" stroke-width="1.6" d="M35.492 26.96c3.072-2.749 4.77-6.71 4.77-10.833s-1.779-8.084-4.77-10.914"></path>
<path stroke-linejoin="round" stroke-linecap="round" stroke-miterlimit="10" stroke-width="1.6" d="M9.457 9.417l14.309-8.084c0.243-0.162 0.404-0.081 0.485 0s0.242 0.162 0.242 0.404v28.699c0 0.243-0.162 0.404-0.242 0.404-0.081 0.081-0.243 0.162-0.485 0l-14.309-8.003M1.858 20.897v-9.62c0-1.051 0.889-1.94 1.94-1.94h5.74v13.501h-5.821c-1.051 0-1.859-0.808-1.859-1.94z"></path>
<path stroke-linejoin="round" stroke-linecap="round" stroke-miterlimit="10" stroke-width="1.6" d="M15.925 10.387l4.931-2.506"></path>
</symbol>
<symbol id="logo" viewBox="0 0 113 32">
<path d="M112.911 30.829l-10.759 0.036-10.607-12.994 0.278 12.98h-8.346v-20.612l8.037-0.053-0.079 3.143 10.69-11.511 9.969 0.030-13.301 13.218 14.117 15.763z"></path>
<path d="M81.745 10.247h-7.432v20.664h7.432v-20.664z"></path>
<path d="M78.676 3.956c0-2.173 1.63-3.85 4.096-3.849s4.093 1.566 4.092 3.736c0 2.287-1.63 3.964-4.096 3.963s-4.093-1.677-4.092-3.85z"></path>
<path d="M72.94 19.090v11.82h-7.43v-10.637c0-2.973-1.328-4.233-3.478-4.234-2.383 0-4.225 1.447-4.226 4.878l-0.006 9.989h-7.432l0.011-20.665 7.083-0.001v2.25c1.682-1.714 4.068-2.59 6.728-2.588 4.961-0.001 8.754 2.784 8.75 9.189z"></path>
<path d="M7.775 10.207h-7.432v20.664h7.432v-20.664z"></path>
<path d="M19.289 10.787c2.815 0 6.020 0.878 8.016 2.978l-2.858 4.421c-1.173-1.106-2.971-1.909-4.732-1.909-3.205 0-4.811 2.36-4.812 4.686s1.64 4.881 5.043 4.882c1.954 0 4.068-1.141 5.518-2.36l2.462 4.615c-1.997 1.981-5.282 3.237-8.646 3.236-7.196 0-11.22-4.891-11.217-10.3-0.005-5.262 3.989-10.253 11.225-10.25z"></path>
<path d="M26.283 20.513c0-6.214 5.051-10.635 11.975-10.631 6.999 0 11.963 4.429 11.959 10.645 0 6.252-4.972 10.71-11.971 10.706-6.923-0.004-11.966-4.467-11.963-10.72zM42.711 20.522c0-3.127-1.912-4.881-4.453-4.882-2.508 0-4.461 1.756-4.463 4.877 0 3.165 1.955 4.957 4.458 4.959 2.533 0.002 4.453-1.788 4.455-4.952l0.004-0.001z"></path>
<path d="M0.299 3.956c0-2.173 1.63-3.85 4.096-3.849s4.092 1.566 4.091 3.736c0 2.287-1.63 3.964-4.095 3.963s-4.093-1.677-4.092-3.85z"></path>
</symbol>
<symbol id="angle-arrow" viewBox="0 0 32 32">
<path fill="none" stroke="#fff" style="stroke: var(--color1, #fff)" stroke-linejoin="miter" stroke-linecap="square" stroke-miterlimit="4" stroke-width="2.8235" d="M6.259 1.575h23.388v21.83"></path>
<path fill="none" stroke="#fff" style="stroke: var(--color1, #fff)" stroke-linejoin="round" stroke-linecap="square" stroke-miterlimit="4" stroke-width="2.8235" d="M28.89 2.42l-25.979 25.816"></path>
</symbol>
<symbol id="refresh-arrows" viewBox="0 0 32 32">
<path fill="#fff" style="fill: var(--color1, #fff)" d="M30.706 15.217c0-8.317-6.742-15.059-15.059-15.059v3.765c6.238 0 11.294 5.056 11.294 11.294 0 3.119-1.264 5.942-3.308 7.986l-0.457 0.457v-4.678h-3.765v11.294h11.294v-3.765h-5.057l0.646-0.646c2.725-2.725 4.411-6.49 4.411-10.648z"></path>
<path fill="#fff" style="fill: var(--color1, #fff)" d="M0.588 15.217c0 8.317 6.742 15.059 15.059 15.059v-3.765c-6.238 0-11.294-5.056-11.294-11.294 0-3.119 1.264-5.942 3.308-7.986l0.457-0.457v4.678h3.765v-11.294h-11.294v3.765h5.057l-0.646 0.646c-2.725 2.725-4.411 6.49-4.411 10.648z"></path>
</symbol>
<symbol id="info" viewBox="0 0 8 32">
<path d="M7.134 9.097h-6.021v22.516h6.021v-22.516z"></path>
<path d="M4.121 7.46c-0.11 0-0.221-0.007-0.331-0.014-0.11-0.014-0.221-0.028-0.331-0.048s-0.221-0.048-0.325-0.083c-0.104-0.035-0.214-0.069-0.318-0.11s-0.207-0.090-0.304-0.145c-0.097-0.055-0.193-0.11-0.29-0.173-0.090-0.062-0.179-0.131-0.269-0.2-0.083-0.069-0.166-0.145-0.249-0.228-0.076-0.076-0.152-0.159-0.228-0.249-0.069-0.090-0.138-0.173-0.2-0.269-0.062-0.090-0.117-0.186-0.173-0.29-0.055-0.097-0.104-0.2-0.145-0.304s-0.083-0.207-0.11-0.318c-0.035-0.104-0.062-0.214-0.083-0.325s-0.041-0.221-0.048-0.331c0-0.097-0.007-0.207-0.007-0.318s0.007-0.221 0.014-0.331c0.014-0.11 0.028-0.221 0.048-0.331s0.048-0.221 0.083-0.325c0.035-0.104 0.069-0.214 0.11-0.318s0.090-0.207 0.145-0.304c0.055-0.097 0.11-0.193 0.173-0.29 0.062-0.090 0.131-0.179 0.2-0.269s0.145-0.166 0.228-0.249c0.076-0.076 0.159-0.152 0.249-0.228 0.090-0.069 0.173-0.138 0.269-0.2 0.090-0.062 0.186-0.117 0.29-0.173s0.2-0.104 0.304-0.145c0.104-0.041 0.207-0.083 0.318-0.11 0.104-0.035 0.214-0.062 0.325-0.083s0.221-0.041 0.331-0.048c0.097 0 0.214-0.007 0.325-0.007s0.221 0.007 0.331 0.014c0.11 0.014 0.221 0.028 0.331 0.048s0.221 0.048 0.325 0.083c0.104 0.035 0.214 0.069 0.318 0.11s0.207 0.090 0.304 0.145c0.097 0.055 0.193 0.11 0.29 0.173s0.18 0.131 0.269 0.2c0.083 0.069 0.166 0.145 0.249 0.228 0.076 0.076 0.152 0.159 0.228 0.249 0.069 0.090 0.138 0.173 0.2 0.269 0.062 0.090 0.117 0.186 0.173 0.29 0.055 0.097 0.104 0.2 0.145 0.304s0.083 0.207 0.11 0.318c0.035 0.104 0.062 0.214 0.083 0.325s0.041 0.221 0.048 0.331c0.014 0.11 0.014 0.221 0.014 0.331s-0.007 0.221-0.014 0.331c-0.007 0.11-0.028 0.221-0.048 0.331s-0.048 0.221-0.083 0.325c-0.035 0.104-0.069 0.214-0.11 0.318s-0.090 0.207-0.145 0.304c-0.055 0.097-0.11 0.193-0.173 0.29-0.062 0.090-0.131 0.18-0.2 0.269s-0.145 0.166-0.228 0.249c-0.076 0.076-0.159 0.152-0.249 0.228-0.090 0.069-0.173 0.138-0.269 0.2-0.090 0.062-0.186 0.117-0.29 0.173-0.097 0.055-0.2 0.104-0.304 0.145s-0.207 0.083-0.318 0.11c-0.104 0.035-0.214 0.062-0.325 0.083s-0.221 0.041-0.331 0.048c-0.11-0.007-0.221-0.007-0.331-0.007z"></path>
</symbol>
<symbol id="mail" viewBox="0 0 32 32">
<path stroke-linejoin="round" stroke-linecap="round" stroke-miterlimit="4" stroke-width="3" d="M30.5 5.334v21.611h-29v-21.611M1.5 5.055h29v0.557l-14.5 11.713-14.5-11.713v-0.557z"></path>
</symbol>
<symbol id="phone" viewBox="0 0 32 32">
<path stroke-linejoin="round" stroke-linecap="round" stroke-miterlimit="10" stroke-width="3" d="M24.392 14.799c0.049-1.573-0.792-3.359-2.25-4.779-1.458-1.415-3.292-2.233-4.914-2.186M30.492 14.777c0.141-2.586-1.553-5.991-4.317-8.676-2.808-2.728-6.231-4.338-8.925-4.197M6.116 3.8c-0.261 0-0.505 0.097-0.687 0.274l-3.012 2.929c-0.55 0.535-0.983 1.707-0.908 2.459 0.007 0.062 0.763 6.581 7.745 13.371 6.7 6.513 13.398 7.243 13.464 7.249 0.773 0.072 1.676 0.008 2.528-0.882l3.012-2.929c0.379-0.368 0.379-0.968 0-1.337l-4.878-4.76c-0.364-0.353-1.010-0.353-1.375 0l-0.995 0.968c-0.952 0.926-2.779 1.525-4.128 1.33-0.25-0.036-1.818 0.278-4.825-2.645-3.006-2.921-2.483-4.214-2.52-4.458-0.201-1.335 0.387-3.060 1.369-4.013l0.995-0.967c0.182-0.177 0.282-0.414 0.283-0.668s-0.1-0.492-0.283-0.668l-5.097-4.978c-0.182-0.178-0.426-0.275-0.687-0.275z"></path>
</symbol>
<symbol id="user" viewBox="0 0 32 32">
<path stroke-linejoin="miter" stroke-linecap="butt" stroke-miterlimit="10" stroke-width="3" d="M30.4 31.346c0-8.776-5.512-12.167-14.4-12.167s-14.4 3.391-14.4 12.167"></path>
<path stroke-linejoin="miter" stroke-linecap="butt" stroke-miterlimit="10" stroke-width="3" d="M10.529 7.779c0-3.231 2.678-5.875 5.95-5.875s5.801 2.644 5.95 5.875c0 3.231-2.678 5.875-5.95 5.875s-5.95-2.644-5.95-5.875z"></path>
</symbol>
<symbol id="play" viewBox="0 0 18 32">
<path stroke-linejoin="miter" stroke-linecap="butt" stroke-miterlimit="4" stroke-width="2" d="M24 16l-23 13.279v-26.558l23 13.279z"></path>
</symbol>
<symbol id="checkmark" viewBox="0 0 32 32">
<path fill="#8b32fe" style="fill: var(--color2, #8b32fe)" d="M29.148 6.19c0.755 0.755 0.755 1.979 0 2.734l-16.887 16.887c-0.363 0.363-0.854 0.566-1.367 0.566s-1.004-0.204-1.367-0.566l-6.676-6.676c-0.755-0.755-0.755-1.979 0-2.734s1.979-0.755 2.734 0l5.309 5.309 15.52-15.52c0.755-0.755 1.979-0.755 2.733 0z"></path>
</symbol>
<symbol id="city" viewBox="0 0 32 32">
<path fill="none" stroke="#8b32fe" style="stroke: var(--color2, #8b32fe)" stroke-linejoin="round" stroke-linecap="round" stroke-miterlimit="10" stroke-width="0.3967" d="M29.069 27.737v-14.533l-2.536-2.237"></path>
<path fill="none" stroke="#8b32fe" style="stroke: var(--color2, #8b32fe)" stroke-linejoin="round" stroke-linecap="round" stroke-miterlimit="10" stroke-width="0.3967" d="M25.020 10.967l-1.875 1.641"></path>
<path fill="none" stroke="#8b32fe" style="stroke: var(--color2, #8b32fe)" stroke-linejoin="round" stroke-linecap="round" stroke-miterlimit="10" stroke-width="0.3967" d="M25.725 14.717v-6.478"></path>
<path fill="none" stroke="#8b32fe" style="stroke: var(--color2, #8b32fe)" stroke-linejoin="round" stroke-linecap="round" stroke-miterlimit="10" stroke-width="0.3967" d="M24.935 12.884l-0.725 0.618v1.492"></path>
<path fill="none" stroke="#8b32fe" style="stroke: var(--color2, #8b32fe)" stroke-linejoin="round" stroke-linecap="round" stroke-miterlimit="10" stroke-width="0.3967" d="M27.322 14.973v-1.492l-0.724-0.618"></path>
<path fill="none" stroke="#8b32fe" style="stroke: var(--color2, #8b32fe)" stroke-linejoin="round" stroke-linecap="round" stroke-miterlimit="10" stroke-width="0.3967" d="M23.934 15.655h5.157"></path>
<path fill="none" stroke="#8b32fe" style="stroke: var(--color2, #8b32fe)" stroke-linejoin="round" stroke-linecap="round" stroke-miterlimit="10" stroke-width="0.3967" d="M24.892 17.828h-1.002"></path>
<path fill="none" stroke="#8b32fe" style="stroke: var(--color2, #8b32fe)" stroke-linejoin="round" stroke-linecap="round" stroke-miterlimit="10" stroke-width="0.3967" d="M24.892 19.789h-1.002"></path>
<path fill="none" stroke="#8b32fe" style="stroke: var(--color2, #8b32fe)" stroke-linejoin="round" stroke-linecap="round" stroke-miterlimit="10" stroke-width="0.3967" d="M24.892 21.728h-1.002"></path>
<path fill="none" stroke="#8b32fe" style="stroke: var(--color2, #8b32fe)" stroke-linejoin="round" stroke-linecap="round" stroke-miterlimit="10" stroke-width="0.3967" d="M24.892 23.688h-1.002"></path>
<path fill="none" stroke="#8b32fe" style="stroke: var(--color2, #8b32fe)" stroke-linejoin="round" stroke-linecap="round" stroke-miterlimit="10" stroke-width="0.3967" d="M24.892 25.627h-1.002"></path>
<path fill="none" stroke="#8b32fe" style="stroke: var(--color2, #8b32fe)" stroke-linejoin="round" stroke-linecap="round" stroke-miterlimit="10" stroke-width="0.3967" d="M27.64 17.828h-1.002"></path>
<path fill="none" stroke="#8b32fe" style="stroke: var(--color2, #8b32fe)" stroke-linejoin="round" stroke-linecap="round" stroke-miterlimit="10" stroke-width="0.3967" d="M27.683 19.789h-1.066"></path>
<path fill="none" stroke="#8b32fe" style="stroke: var(--color2, #8b32fe)" stroke-linejoin="round" stroke-linecap="round" stroke-miterlimit="10" stroke-width="0.3967" d="M27.64 21.728h-1.002"></path>
<path fill="none" stroke="#8b32fe" style="stroke: var(--color2, #8b32fe)" stroke-linejoin="round" stroke-linecap="round" stroke-miterlimit="10" stroke-width="0.3967" d="M27.64 23.688h-1.002"></path>
<path fill="none" stroke="#8b32fe" style="stroke: var(--color2, #8b32fe)" stroke-linejoin="round" stroke-linecap="round" stroke-miterlimit="10" stroke-width="0.3967" d="M27.64 25.627h-1.002"></path>
<path fill="none" stroke="#8b32fe" style="stroke: var(--color2, #8b32fe)" stroke-linejoin="round" stroke-linecap="round" stroke-miterlimit="10" stroke-width="0.3967" d="M21.738 27.737c0.021-0.128 1.641-13.467-1.215-19.029h-2.387v19.093"></path>
<path fill="none" stroke="#8b32fe" style="stroke: var(--color2, #8b32fe)" stroke-linejoin="round" stroke-linecap="round" stroke-miterlimit="10" stroke-width="0.3967" d="M18.011 10.093l-1.769 1.342v16.429"></path>
<path fill="none" stroke="#8b32fe" style="stroke: var(--color2, #8b32fe)" stroke-linejoin="round" stroke-linecap="round" stroke-miterlimit="10" stroke-width="0.3967" d="M19.692 14.93h0.554v0.597h-0.554v-0.597z"></path>
<path fill="none" stroke="#8b32fe" style="stroke: var(--color2, #8b32fe)" stroke-linejoin="round" stroke-linecap="round" stroke-miterlimit="10" stroke-width="0.3967" d="M19.692 16.955h0.554v0.597h-0.554v-0.597z"></path>
<path fill="none" stroke="#8b32fe" style="stroke: var(--color2, #8b32fe)" stroke-linejoin="round" stroke-linecap="round" stroke-miterlimit="10" stroke-width="0.3967" d="M19.692 19.022h0.554v0.597h-0.554v-0.597z"></path>
<path fill="none" stroke="#8b32fe" style="stroke: var(--color2, #8b32fe)" stroke-linejoin="round" stroke-linecap="round" stroke-miterlimit="10" stroke-width="0.3967" d="M19.692 21.046h0.554v0.597h-0.554v-0.597z"></path>
<path fill="none" stroke="#8b32fe" style="stroke: var(--color2, #8b32fe)" stroke-linejoin="round" stroke-linecap="round" stroke-miterlimit="10" stroke-width="0.3967" d="M19.692 23.070h0.554v0.597h-0.554v-0.597z"></path>
<path fill="none" stroke="#8b32fe" style="stroke: var(--color2, #8b32fe)" stroke-linejoin="round" stroke-linecap="round" stroke-miterlimit="10" stroke-width="0.3967" d="M19.692 25.116h0.554v0.597h-0.554v-0.597z"></path>
<path fill="none" stroke="#8b32fe" style="stroke: var(--color2, #8b32fe)" stroke-linejoin="round" stroke-linecap="round" stroke-miterlimit="10" stroke-width="0.3967" d="M12.747 12.778c0.895-3.644 1.129-7.117 1.172-7.991l-3.644-1.151"></path>
<path fill="none" stroke="#8b32fe" style="stroke: var(--color2, #8b32fe)" stroke-linejoin="round" stroke-linecap="round" stroke-miterlimit="10" stroke-width="0.3967" d="M13.919 27.843c-2.11-10.122-3.623-24.079-3.644-24.207"></path>
<path fill="none" stroke="#8b32fe" style="stroke: var(--color2, #8b32fe)" stroke-linejoin="round" stroke-linecap="round" stroke-miterlimit="10" stroke-width="0.3967" d="M7.952 21.472l-1.534 6.798"></path>
<path fill="none" stroke="#8b32fe" style="stroke: var(--color2, #8b32fe)" stroke-linejoin="round" stroke-linecap="round" stroke-miterlimit="10" stroke-width="0.3967" d="M9.699 3.764l-1.598 0.746c-0.17 1.428-1.364 12.423 2.749 23.312"></path>
<path fill="none" stroke="#8b32fe" style="stroke: var(--color2, #8b32fe)" stroke-linejoin="round" stroke-linecap="round" stroke-miterlimit="10" stroke-width="0.3967" d="M7.93 7.301l2.642-0.682"></path>
<path fill="none" stroke="#8b32fe" style="stroke: var(--color2, #8b32fe)" stroke-linejoin="round" stroke-linecap="round" stroke-miterlimit="10" stroke-width="0.3967" d="M7.802 10.817l3.303-0.618"></path>
<path fill="none" stroke="#8b32fe" style="stroke: var(--color2, #8b32fe)" stroke-linejoin="round" stroke-linecap="round" stroke-miterlimit="10" stroke-width="0.3967" d="M7.971 14.419l3.58-0.618"></path>
<path fill="none" stroke="#8b32fe" style="stroke: var(--color2, #8b32fe)" stroke-linejoin="round" stroke-linecap="round" stroke-miterlimit="10" stroke-width="0.3967" d="M8.442 18.468l3.687-0.661"></path>
<path fill="none" stroke="#8b32fe" style="stroke: var(--color2, #8b32fe)" stroke-linejoin="round" stroke-linecap="round" stroke-miterlimit="10" stroke-width="0.3967" d="M9.124 22.111l3.601-0.661"></path>
<path fill="none" stroke="#8b32fe" style="stroke: var(--color2, #8b32fe)" stroke-linejoin="round" stroke-linecap="round" stroke-miterlimit="10" stroke-width="0.3967" d="M9.975 25.308l3.324-0.639"></path>
<path fill="none" stroke="#8b32fe" style="stroke: var(--color2, #8b32fe)" stroke-linejoin="round" stroke-linecap="round" stroke-miterlimit="10" stroke-width="0.3967" d="M10.872 27.865h14.916"></path>
<path fill="none" stroke="#8b32fe" style="stroke: var(--color2, #8b32fe)" stroke-linejoin="round" stroke-linecap="round" stroke-miterlimit="10" stroke-width="0.3967" d="M4.392 15.441c-0.341 0-0.639 0.213-0.874 0.447-0.234-0.234-0.554-0.447-0.874-0.447"></path>
<path fill="none" stroke="#8b32fe" style="stroke: var(--color2, #8b32fe)" stroke-linejoin="round" stroke-linecap="round" stroke-miterlimit="10" stroke-width="0.3967" d="M6.437 16.614c-0.32 0-0.639 0.213-0.874 0.448-0.234-0.234-0.554-0.448-0.874-0.448"></path>
<path fill="none" stroke="#8b32fe" style="stroke: var(--color2, #8b32fe)" stroke-linejoin="round" stroke-linecap="round" stroke-miterlimit="10" stroke-width="0.3967" d="M23.613 6.492l-0.682 1.023h-0.341l0.17-1.002M22.718 5.085l-0.192-1.023h0.341l0.746 1.023M20.864 4.553c0.085 0 0.17 0.043 0.213 0.107l0.448 0.597c0.128 0.17 0.341 0.277 0.554 0.277h0.469l1.939 0.021c0.085 0 0.192 0.043 0.234 0.128s0.043 0.192 0 0.256c-0.043 0.085-0.128 0.128-0.234 0.128h-1.875c-0.021 0-0.064 0-0.085 0h-1.087c-0.064 0-0.107-0.021-0.149-0.043s-0.085-0.085-0.085-0.128l-0.49-1.342h0.149z"></path>
</symbol>
<symbol id="sheet-pen" viewBox="0 0 32 32">
<path fill="none" stroke="#8b32fe" style="stroke: var(--color2, #8b32fe)" stroke-linejoin="round" stroke-linecap="round" stroke-miterlimit="10" stroke-width="0.3967" d="M22.959 16.017v-7.816l-4.745-4.703h-13.649c-0.635 0-1.186 0.551-1.186 1.186v22.113c0 0.889 0.72 1.61 1.61 1.61h16.784c0.636 0 1.186-0.551 1.186-1.186v-7.051M22.683 8.357h-3.281c-0.735 0-1.301-0.566-1.301-1.301v-3.281"></path>
<path fill="none" stroke="#8b32fe" style="stroke: var(--color2, #8b32fe)" stroke-linejoin="round" stroke-linecap="round" stroke-miterlimit="10" stroke-width="0.3967" d="M15.030 8.243h-9.15"></path>
<path fill="none" stroke="#8b32fe" style="stroke: var(--color2, #8b32fe)" stroke-linejoin="round" stroke-linecap="round" stroke-miterlimit="10" stroke-width="0.3967" d="M13.464 10.658h-7.584"></path>
<path fill="none" stroke="#8b32fe" style="stroke: var(--color2, #8b32fe)" stroke-linejoin="round" stroke-linecap="round" stroke-miterlimit="10" stroke-width="0.3967" d="M17.53 13.115h-11.651"></path>
<path fill="none" stroke="#8b32fe" style="stroke: var(--color2, #8b32fe)" stroke-linejoin="round" stroke-linecap="round" stroke-miterlimit="10" stroke-width="0.3967" d="M10.547 15.457h-4.667"></path>
<path fill="none" stroke="#8b32fe" style="stroke: var(--color2, #8b32fe)" stroke-linejoin="round" stroke-linecap="round" stroke-miterlimit="10" stroke-width="0.3967" d="M15.231 15.457h-2.794"></path>
<path fill="none" stroke="#8b32fe" style="stroke: var(--color2, #8b32fe)" stroke-linejoin="round" stroke-linecap="round" stroke-miterlimit="10" stroke-width="0.3967" d="M26.797 16.267c0.285-0.36 0.63-0.66 0.448-1.162l0.698-0.698c0.432-0.432 0.589-0.987 0.157-1.419-0.216-0.216-0.473-0.294-0.758-0.294s-0.513 0.166-0.729 0.382l-0.699 0.699M26.797 16.267l-8.627 8.625c-0.042 0.043-0.095 0.074-0.153 0.092l-2.498 0.714c-0.27 0.079-0.276 0.074-0.197-0.197l0.714-2.498c0.017-0.059 0.049-0.112 0.093-0.155l8.877-8.877c0.243-0.243 0.602-0.306 0.908-0.194M26.797 16.267l0.060 0.060c0.284 0.284 0.284 0.725 0 1.009l-1.742 1.742 1.682-2.811zM25.914 13.776l1.345 1.302M16.059 22.947l1.957 2.037M20.922 22.14l-2.045-2.042"></path>
<path fill="none" stroke="#8b32fe" style="stroke: var(--color2, #8b32fe)" stroke-linejoin="round" stroke-linecap="round" stroke-miterlimit="10" stroke-width="0.3967" d="M5.455 24.188c0 0 0.374 0.764 1.223 1.237s2.204 0.595 3.841-0.387c1.374-0.824 2.132-0.645 2.638-0.364s0.728 0.721 0.728 0.721"></path>
</symbol>
<symbol id="hands" viewBox="0 0 32 32">
<path fill="none" stroke="#8b32fe" style="stroke: var(--color2, #8b32fe)" stroke-linejoin="round" stroke-linecap="round" stroke-miterlimit="10" stroke-width="0.3967" d="M10.647 16.025l0.791 0.256c0.535 0.186 1.141 0.163 1.653-0.093l0.279-0.14c0.396-0.186 0.861-0.233 1.281-0.070 0 0 5.563 1.932 5.565 1.932 0.070 0.024-0.272 0.715-0.304 0.779-0.343 0.68-0.899 0.883-1.633 0.679-0.82-0.229-1.627-0.549-2.44-0.806-0.070-0.023-0.14-0.023-0.186 0.023-0.047 0.023-0.093 0.093-0.116 0.14 0 0.023-0.349 1.304-1.49 1.909-0.722 0.396-1.606 0.396-2.631 0.047M11.622 25.038c-0.435 0.218-0.963 0.031-1.181-0.404s-0.031-0.963 0.404-1.181l2.735-1.336M14.436 25.628l-2.842 1.374c-0.435 0.218-0.963 0.031-1.181-0.404s-0.031-0.994 0.404-1.181l0.715-0.342 5.128-2.517M15.038 27.338l-1.525 0.737c-0.218 0.093-0.466 0.124-0.684 0.031-0.218-0.062-0.404-0.249-0.497-0.466s-0.124-0.466-0.031-0.684c0.093-0.218 0.249-0.404 0.466-0.497l1.119-0.559 3.709-1.829M25.012 22.8l-1.49 1.281c-0.931 0.861-1.896 1.881-3.037 2.44l-5.355 2.631c-0.163 0.070-0.419-0.023-0.582-0.093-0.506-0.217-0.662-1.191-0.083-1.439l2.52-1.23M25.012 22.8l-3.143-6.426 2.375-1.164 3.143 6.426-2.375 1.164zM8.342 22.776l-2.491-0.861 2.328-6.775 2.398 0.838 0.023 0.023 0.047 0.023-2.305 6.752z"></path>
<path fill="none" stroke="#8b32fe" style="stroke: var(--color2, #8b32fe)" stroke-linejoin="round" stroke-linecap="round" stroke-miterlimit="10" stroke-width="0.3967" d="M21.868 16.374l-3.143 0.372"></path>
<path fill="none" stroke="#8b32fe" style="stroke: var(--color2, #8b32fe)" stroke-linejoin="round" stroke-linecap="round" stroke-miterlimit="10" stroke-width="0.3967" d="M10.345 24.080l-2.002-1.304"></path>
<path fill="none" stroke="#8b32fe" style="stroke: var(--color2, #8b32fe)" stroke-linejoin="miter" stroke-linecap="butt" stroke-miterlimit="4" stroke-width="0.3967" d="M4.369 11.945c0 0.711-0.577 1.288-1.288 1.288s-1.288-0.577-1.288-1.288c0-0.711 0.577-1.288 1.288-1.288s1.288 0.577 1.288 1.288z"></path>
<path fill="none" stroke="#8b32fe" style="stroke: var(--color2, #8b32fe)" stroke-linejoin="miter" stroke-linecap="butt" stroke-miterlimit="4" stroke-width="0.3967" d="M29.943 11.341c0 1.205-0.977 2.181-2.181 2.181s-2.181-0.977-2.181-2.181c0-1.205 0.977-2.181 2.181-2.181s2.181 0.977 2.181 2.181z"></path>
<path fill="none" stroke="#8b32fe" style="stroke: var(--color2, #8b32fe)" stroke-linejoin="miter" stroke-linecap="butt" stroke-miterlimit="4" stroke-width="0.3967" d="M25.058 3.233c0 0.278-0.225 0.503-0.503 0.503s-0.503-0.225-0.503-0.503c0-0.278 0.225-0.503 0.503-0.503s0.503 0.225 0.503 0.503z"></path>
<path fill="none" stroke="#8b32fe" style="stroke: var(--color2, #8b32fe)" stroke-linejoin="miter" stroke-linecap="butt" stroke-miterlimit="4" stroke-width="0.3967" d="M20.216 8.757c0 1.987-1.611 3.598-3.598 3.598s-3.598-1.611-3.598-3.598c0-1.987 1.611-3.598 3.598-3.598s3.598 1.611 3.598 3.598z"></path>
<path fill="none" stroke="#8b32fe" style="stroke: var(--color2, #8b32fe)" stroke-linejoin="round" stroke-linecap="round" stroke-miterlimit="4" stroke-width="0.3967" d="M16.009 9.815c0.198 0.277 0.357 0.495 0.476 0.674 0.020 0.059 0.079 0.079 0.139 0.079s0.099-0.020 0.139-0.059l0.476-0.674c0.218-0.357 0.376-0.575 0.456-0.693 0.099-0.178 0.178-0.317 0.218-0.436s0.059-0.238 0.059-0.396c0-0.238-0.059-0.476-0.178-0.674-0.119-0.218-0.297-0.376-0.495-0.495s-0.436-0.178-0.674-0.178c-0.238 0-0.476 0.059-0.674 0.178-0.218 0.119-0.376 0.297-0.495 0.495s-0.178 0.436-0.178 0.674c0 0.139 0 0.277 0.040 0.396s0.119 0.258 0.238 0.416c0.059 0.119 0.218 0.357 0.456 0.694z"></path>
<path fill="#8b32fe" style="fill: var(--color2, #8b32fe)" d="M16.627 8.611c0.202 0 0.365-0.163 0.365-0.365s-0.163-0.365-0.365-0.365c-0.202 0-0.365 0.163-0.365 0.365s0.163 0.365 0.365 0.365z"></path>
<path fill="none" stroke="#8b32fe" style="stroke: var(--color2, #8b32fe)" stroke-linejoin="miter" stroke-linecap="butt" stroke-miterlimit="10" stroke-width="0.3967" d="M8.085 3.39c1.132 0 2.061 0.929 2.061 2.061s-0.929 2.061-2.061 2.061c-1.132 0-2.061-0.929-2.061-2.061s0.9-2.061 2.061-2.061z"></path>
<path fill="none" stroke="#8b32fe" style="stroke: var(--color2, #8b32fe)" stroke-linejoin="round" stroke-linecap="round" stroke-miterlimit="10" stroke-width="0.3967" d="M8.086 4.377v1.103l0.958 0.725"></path>
<path fill="none" stroke="#8b32fe" style="stroke: var(--color2, #8b32fe)" stroke-linejoin="round" stroke-linecap="butt" stroke-miterlimit="4" stroke-width="0.3967" d="M27.763 10.302l0.305 0.618 0.682 0.099-0.494 0.481 0.117 0.68-0.61-0.321-0.61 0.321 0.117-0.68-0.494-0.481 0.682-0.099 0.305-0.618z"></path>
</symbol>
<symbol id="wireless-connect" viewBox="0 0 32 32">
<path fill="none" stroke="#8b32fe" style="stroke: var(--color2, #8b32fe)" stroke-linejoin="round" stroke-linecap="round" stroke-miterlimit="10" stroke-width="0.3967" d="M20.307 7.268c0-2.391-1.941-4.353-4.353-4.353s-4.332 1.962-4.332 4.353c0 2.391 1.941 4.353 4.353 4.353s4.332-1.962 4.332-4.353z"></path>
<path fill="none" stroke="#8b32fe" style="stroke: var(--color2, #8b32fe)" stroke-linejoin="round" stroke-linecap="round" stroke-miterlimit="10" stroke-width="0.3967" d="M3.815 14.645c0-0.715 0.593-1.308 1.308-1.308h6.948c0.715 0 1.308 0.593 1.308 1.308M9.21 22.492l-0.634 2.105-0.633-2.105h1.267zM9.21 22.492h0.511c1.083 0.143 1.901 1.042 1.901 2.146v2.166h-6.090v-2.166c0-1.104 0.817-2.003 1.88-2.146M3.815 26.804v-11.281h9.564v11.301M13.359 27.683c0 0.715-0.593 1.308-1.308 1.308h-6.948c-0.715 0-1.308-0.593-1.308-1.308M8.577 21.593c-0.96 0-1.737-0.777-1.737-1.737s0.777-1.737 1.737-1.737c0.96 0 1.737 0.777 1.737 1.737s-0.777 1.737-1.737 1.737z"></path>
<path fill="none" stroke="#8b32fe" style="stroke: var(--color2, #8b32fe)" stroke-linejoin="round" stroke-linecap="round" stroke-miterlimit="10" stroke-width="0.3967" d="M18.568 14.645c0-0.715 0.593-1.308 1.308-1.308h6.948c0.715 0 1.308 0.593 1.308 1.308M18.568 26.804v-11.281h9.564v11.301M28.133 27.683c0 0.715-0.593 1.308-1.308 1.308h-6.948c-0.715 0-1.308-0.593-1.308-1.308M23.35 21.593c-0.96 0-1.737-0.777-1.737-1.737s0.777-1.737 1.737-1.737c0.96 0 1.737 0.777 1.737 1.737s-0.777 1.737-1.737 1.737zM24.209 22.472c1.206 0 2.166 0.981 2.166 2.166v2.166h-6.069v-2.166c0-1.206 0.981-2.166 2.166-2.166h1.737z"></path>
<path fill="none" stroke="#8b32fe" style="stroke: var(--color2, #8b32fe)" stroke-linejoin="round" stroke-linecap="round" stroke-miterlimit="10" stroke-width="0.3967" d="M23.352 24.209v-0.879"></path>
<path fill="none" stroke="#8b32fe" style="stroke: var(--color2, #8b32fe)" stroke-linejoin="round" stroke-linecap="round" stroke-miterlimit="10" stroke-width="0.3967" d="M23.352 25.946v-0.879"></path>
<path fill="none" stroke="#8b32fe" style="stroke: var(--color2, #8b32fe)" stroke-linejoin="round" stroke-linecap="round" stroke-miterlimit="10" stroke-width="0.3967" d="M5.551 10.742c0.47 0 0.879 0.388 0.879 0.879"></path>
<path fill="none" stroke="#8b32fe" style="stroke: var(--color2, #8b32fe)" stroke-linejoin="round" stroke-linecap="round" stroke-miterlimit="10" stroke-width="0.3967" d="M5.551 9.005c1.431 0 2.616 1.165 2.616 2.616"></path>
<path fill="none" stroke="#8b32fe" style="stroke: var(--color2, #8b32fe)" stroke-linejoin="round" stroke-linecap="round" stroke-miterlimit="10" stroke-width="0.3967" d="M5.551 7.268c2.391 0 4.353 1.941 4.353 4.353"></path>
<path fill="none" stroke="#8b32fe" style="stroke: var(--color2, #8b32fe)" stroke-linejoin="round" stroke-linecap="round" stroke-miterlimit="10" stroke-width="0.3967" d="M25.517 11.62c0-0.47 0.388-0.879 0.879-0.879"></path>
<path fill="none" stroke="#8b32fe" style="stroke: var(--color2, #8b32fe)" stroke-linejoin="round" stroke-linecap="round" stroke-miterlimit="10" stroke-width="0.3967" d="M23.779 11.621c0-1.431 1.165-2.616 2.616-2.616"></path>
<path fill="none" stroke="#8b32fe" style="stroke: var(--color2, #8b32fe)" stroke-linejoin="round" stroke-linecap="round" stroke-miterlimit="10" stroke-width="0.3967" d="M22.044 11.621c0-2.411 1.941-4.353 4.353-4.353"></path>
<path fill="none" stroke="#8b32fe" style="stroke: var(--color2, #8b32fe)" stroke-linejoin="round" stroke-linecap="round" stroke-miterlimit="10" stroke-width="0.3967" d="M7.431 22.492h0.531"></path>
<path fill="none" stroke="#8b32fe" style="stroke: var(--color2, #8b32fe)" stroke-linejoin="round" stroke-linecap="round" stroke-miterlimit="10" stroke-width="0.3967" d="M15.973 11.62c-0.797-1.717-2.514-4.353 0-8.685"></path>
<path fill="none" stroke="#8b32fe" style="stroke: var(--color2, #8b32fe)" stroke-linejoin="round" stroke-linecap="round" stroke-miterlimit="10" stroke-width="0.3967" d="M15.993 11.62c0.777-1.717 2.493-4.353-0.020-8.685"></path>
<path fill="none" stroke="#8b32fe" style="stroke: var(--color2, #8b32fe)" stroke-linejoin="round" stroke-linecap="round" stroke-miterlimit="10" stroke-width="0.3967" d="M19.384 4.611c-1.553 0.736-3.74 1.512-6.887 0.041"></path>
<path fill="none" stroke="#8b32fe" style="stroke: var(--color2, #8b32fe)" stroke-linejoin="round" stroke-linecap="round" stroke-miterlimit="10" stroke-width="0.3967" d="M19.384 9.924c-1.553-0.736-3.74-1.512-6.887-0.041"></path>
<path fill="none" stroke="#8b32fe" style="stroke: var(--color2, #8b32fe)" stroke-linejoin="round" stroke-linecap="round" stroke-miterlimit="10" stroke-width="0.3967" d="M11.805 7.247h8.481"></path>
</symbol>
<symbol id="laptop" viewBox="0 0 34 32">
<path fill="none" stroke="#8b32fe" style="stroke: var(--color2, #8b32fe)" stroke-linejoin="round" stroke-linecap="round" stroke-miterlimit="10" stroke-width="0.3967" d="M6.025 15.216v-8.082h19.301"></path>
<path fill="none" stroke="#8b32fe" style="stroke: var(--color2, #8b32fe)" stroke-linejoin="round" stroke-linecap="round" stroke-miterlimit="10" stroke-width="0.3967" d="M27.465 7.134h0.903v13.644h-22.343v-3.47"></path>
<path fill="none" stroke="#8b32fe" style="stroke: var(--color2, #8b32fe)" stroke-linejoin="round" stroke-linecap="round" stroke-miterlimit="10" stroke-width="0.3967" d="M10.542 23.678c3.090 0 16.354 0 22.391 0-0.19 1.806-1.711 3.28-3.613 3.28h-24.245c-1.902 0-3.423-1.426-3.613-3.28 0.095 0 4.326 0 4.231 0M3.839 23.678v-17.637c0-0.618 0.523-1.093 1.093-1.093h24.483c0.618 0 1.094 0.523 1.094 1.093v17.637"></path>
<path fill="none" stroke="#8b32fe" style="stroke: var(--color2, #8b32fe)" stroke-linejoin="round" stroke-linecap="round" stroke-miterlimit="10" stroke-width="0.3967" d="M26.184 11.841h-8.937v2.187h8.937v-2.187z"></path>
<path fill="none" stroke="#8b32fe" style="stroke: var(--color2, #8b32fe)" stroke-linejoin="round" stroke-linecap="round" stroke-miterlimit="10" stroke-width="0.3967" d="M17.247 9.892h5.752"></path>
<path fill="none" stroke="#8b32fe" style="stroke: var(--color2, #8b32fe)" stroke-linejoin="round" stroke-linecap="round" stroke-miterlimit="10" stroke-width="0.3967" d="M26.184 15.834h-8.937v2.187h8.937v-2.187z"></path>
<path fill="none" stroke="#8b32fe" style="stroke: var(--color2, #8b32fe)" stroke-linejoin="round" stroke-linecap="round" stroke-miterlimit="10" stroke-width="0.3967" d="M10.78 11.288l2.71 3.375-1.141-0.048c-0.095 0-0.19 0.095-0.19 0.19v0.048l0.475 1.759-0.808 0.238-0.475-1.759c0-0.095-0.095-0.143-0.19-0.143h-0.048l-0.998 0.618 0.666-4.279z"></path>
</symbol>
<symbol id="next-arrow" viewBox="0 0 34 32">
<path fill="none"  stroke-linejoin="miter" stroke-linecap="butt" stroke-miterlimit="10" stroke-width="1.5" d="M16.759 4.456c0 0 0.232 11.436 15.419 12.151h-31.997"></path>
<path fill="none"  stroke-linejoin="miter" stroke-linecap="butt" stroke-miterlimit="10" stroke-width="1.5" d="M17.248 27.543c0 0 0.225-10.293 14.932-10.937"></path>
</symbol>
<symbol id="prev-arrow" viewBox="0 0 34 32">
<path fill="none" stroke-linejoin="miter" stroke-linecap="butt" stroke-miterlimit="10" stroke-width="1.5" d="M17.199 4.456c0 0-0.232 11.436-15.419 12.151h31.997"></path>
<path fill="none" stroke-linejoin="miter" stroke-linecap="butt" stroke-miterlimit="10" stroke-width="1.5" d="M16.71 27.543c0 0-0.225-10.293-14.932-10.937"></path>
</symbol>
<symbol id="clock" viewBox="0 0 29 32">
<path fill="none" stroke-linejoin="miter" stroke-linecap="butt" stroke-miterlimit="10" stroke-width="3.1169" d="M14.546 3.964c7.077 0 12.883 5.807 12.883 12.883s-5.807 12.883-12.883 12.883c-7.076 0-12.883-5.806-12.883-12.883s5.625-12.883 12.883-12.883z"></path>
<path fill="none" stroke-linejoin="round" stroke-linecap="round" stroke-miterlimit="10" stroke-width="3.1169" d="M14.546 10.134v6.895l5.988 4.536"></path>
</symbol>
<symbol id="menu-burger" viewBox="0 0 70 32">
<path d="M0 0h69.818v2.909h-69.818v-2.909z"></path>
<path d="M0 29.091h69.818v2.909h-69.818v-2.909z"></path>
<path d="M0 14.545h69.818v2.909h-69.818v-2.909z"></path>
</symbol>
<symbol id="down-arrow" viewBox="0 0 46 32">
<path d="M24.399 31.313l21.315-20.657v-6.764l-21.312 20.654-21.188-20.662v6.77l21.185 20.659z"></path>
</symbol>

<symbol id="logo-text" viewBox="0 0 235 32">
<path d="M1.336 30.578v-27.847h17.791v3.81h-13.749v7.813h11.429v3.81h-11.429v8.605h13.749v3.81h-17.791z"></path>
<path d="M29.418 30.578l-7.581-20.885h4.080l5.55 15.819 5.55-15.819h4.080l-7.58 20.885h-4.1z"></path>
<path d="M53.090 31.158c-2.076 0-3.9-0.451-5.473-1.354-1.56-0.915-2.778-2.185-3.655-3.81-0.864-1.637-1.296-3.532-1.296-5.685 0-2.282 0.425-4.261 1.276-5.937 0.864-1.676 2.063-2.972 3.597-3.887s3.32-1.373 5.357-1.373c2.127 0 3.938 0.496 5.434 1.489 1.495 0.98 2.611 2.379 3.345 4.196 0.748 1.818 1.044 3.977 0.89 6.478h-4.042v-1.47c-0.026-2.424-0.49-4.216-1.392-5.376-0.89-1.16-2.25-1.74-4.080-1.74-2.024 0-3.545 0.638-4.564 1.915s-1.528 3.12-1.528 5.531c0 2.295 0.509 4.074 1.528 5.337 1.018 1.251 2.488 1.876 4.409 1.876 1.263 0 2.353-0.284 3.268-0.851 0.928-0.58 1.65-1.405 2.166-2.475l3.964 1.257c-0.812 1.869-2.043 3.32-3.694 4.351-1.651 1.018-3.487 1.528-5.511 1.528zM45.644 21.277v-3.152h14.91v3.152h-14.91z"></path>
<path d="M80.996 30.578v-10.269c0-0.812-0.071-1.644-0.213-2.495-0.129-0.864-0.386-1.663-0.773-2.398-0.374-0.735-0.909-1.328-1.605-1.779-0.683-0.451-1.579-0.677-2.688-0.677-0.722 0-1.406 0.123-2.050 0.367-0.645 0.232-1.212 0.612-1.702 1.141-0.477 0.529-0.857 1.225-1.141 2.089-0.271 0.864-0.406 1.915-0.406 3.152l-2.514-0.948c0-1.895 0.355-3.565 1.063-5.009 0.709-1.457 1.728-2.591 3.056-3.404s2.933-1.218 4.815-1.218c1.444 0 2.656 0.232 3.636 0.696s1.773 1.076 2.379 1.837c0.619 0.748 1.089 1.566 1.412 2.456s0.541 1.76 0.658 2.611c0.116 0.851 0.174 1.599 0.174 2.243v11.603h-4.1zM66.318 30.578v-20.885h3.616v6.034h0.483v14.852h-4.1z"></path>
<path d="M102.083 30.578c-1.315 0.258-2.604 0.367-3.867 0.329s-2.391-0.284-3.384-0.735-1.74-1.16-2.243-2.127c-0.451-0.864-0.696-1.74-0.735-2.63-0.026-0.902-0.039-1.921-0.039-3.055v-18.468h4.061v18.275c0 0.838 0.006 1.566 0.019 2.185 0.026 0.619 0.161 1.141 0.406 1.566 0.464 0.799 1.199 1.257 2.205 1.373 1.018 0.103 2.211 0.058 3.577-0.135v3.423zM87.812 12.942v-3.249h14.271v3.249h-14.271z"></path>
<path d="M112.296 30.578l9.050-27.847h5.821l9.050 27.847h-4.196l-8.335-25.41h1.044l-8.238 25.41h-4.196zM116.995 24.293v-3.79h14.542v3.79h-14.542z"></path>
<path d="M150.882 30.578c-1.315 0.258-2.604 0.367-3.868 0.329s-2.391-0.284-3.384-0.735-1.74-1.16-2.243-2.127c-0.451-0.864-0.696-1.74-0.735-2.63-0.026-0.902-0.039-1.921-0.039-3.055v-18.468h4.061v18.275c0 0.838 0.007 1.566 0.020 2.185 0.026 0.619 0.161 1.141 0.406 1.566 0.464 0.799 1.199 1.257 2.204 1.373 1.019 0.103 2.211 0.058 3.578-0.135v3.423zM136.61 12.942v-3.249h14.272v3.249h-14.272z"></path>
<path d="M163.604 31.158c-2.076 0-3.9-0.451-5.473-1.354-1.56-0.915-2.778-2.185-3.655-3.81-0.864-1.637-1.296-3.532-1.296-5.685 0-2.282 0.426-4.261 1.276-5.937 0.864-1.676 2.063-2.972 3.597-3.887s3.32-1.373 5.357-1.373c2.127 0 3.939 0.496 5.434 1.489 1.495 0.98 2.611 2.379 3.345 4.196 0.748 1.818 1.044 3.977 0.89 6.478h-4.042v-1.47c-0.026-2.424-0.49-4.216-1.392-5.376-0.89-1.16-2.25-1.74-4.080-1.74-2.024 0-3.545 0.638-4.564 1.915s-1.527 3.12-1.527 5.531c0 2.295 0.509 4.074 1.527 5.337 1.019 1.251 2.488 1.876 4.409 1.876 1.263 0 2.353-0.284 3.268-0.851 0.928-0.58 1.65-1.405 2.166-2.475l3.964 1.257c-0.812 1.869-2.043 3.32-3.694 4.351-1.65 1.018-3.487 1.528-5.511 1.528zM156.159 21.277v-3.152h14.91v3.152h-14.91z"></path>
<path d="M177.805 30.578v-28.427h4.042v28.427h-4.042z"></path>
<path d="M188.041 6.27v-3.926h4.042v3.926h-4.042zM188.041 30.578v-20.885h4.042v20.885h-4.042z"></path>
<path d="M207.152 31.158c-2.076 0-3.9-0.451-5.473-1.354-1.56-0.915-2.778-2.185-3.655-3.81-0.864-1.637-1.296-3.532-1.296-5.685 0-2.282 0.426-4.261 1.276-5.937 0.864-1.676 2.063-2.972 3.597-3.887s3.32-1.373 5.357-1.373c2.127 0 3.939 0.496 5.434 1.489 1.495 0.98 2.611 2.379 3.345 4.196 0.748 1.818 1.044 3.977 0.89 6.478h-4.042v-1.47c-0.026-2.424-0.49-4.216-1.392-5.376-0.89-1.16-2.25-1.74-4.080-1.74-2.024 0-3.545 0.638-4.564 1.915s-1.527 3.12-1.527 5.531c0 2.295 0.509 4.074 1.527 5.337 1.019 1.251 2.488 1.876 4.409 1.876 1.263 0 2.353-0.284 3.268-0.851 0.928-0.58 1.65-1.405 2.166-2.475l3.964 1.257c-0.812 1.869-2.043 3.32-3.694 4.351-1.65 1.018-3.487 1.528-5.511 1.528zM199.707 21.277v-3.152h14.91v3.152h-14.91z"></path>
<path d="M220.967 30.578v-20.885h3.597v5.067l-0.503-0.658c0.258-0.67 0.593-1.283 1.006-1.837 0.412-0.567 0.89-1.031 1.431-1.392 0.528-0.387 1.115-0.683 1.76-0.89 0.657-0.219 1.328-0.348 2.011-0.387 0.683-0.052 1.341-0.019 1.973 0.097v3.79c-0.683-0.18-1.444-0.232-2.282-0.155-0.825 0.077-1.586 0.342-2.282 0.793-0.657 0.425-1.179 0.941-1.566 1.547-0.374 0.606-0.645 1.283-0.812 2.031-0.168 0.735-0.251 1.515-0.251 2.34v10.539h-4.080z"></path>
</symbol>

<symbol id="cross" viewBox="0 0 32 32">
<path d="M32 3.223l-3.223-3.223-12.777 12.777-12.777-12.777-3.223 3.223 12.777 12.777-12.777 12.777 3.223 3.223 12.777-12.777 12.777 12.777 3.223-3.223-12.777-12.777 12.777-12.777z"></path>
</symbol>



</defs>
</svg>
