<svg width="8" height="31" viewBox="0 0 8 31" xmlns="http://www.w3.org/2000/svg">
<path d="M6.91079 8.81262H1.07812V30.6249H6.91079V8.81262Z" />
<path d="M3.99178 7.22688C3.88476 7.22688 3.77774 7.22019 3.67072 7.2135C3.5637 7.20012 3.45668 7.18675 3.34966 7.16668C3.24264 7.14661 3.13561 7.11986 3.03528 7.08641C2.93495 7.05297 2.82793 7.01953 2.72759 6.97939C2.62726 6.93926 2.52693 6.89244 2.43329 6.83893C2.33964 6.78542 2.246 6.73191 2.15235 6.67171C2.0654 6.61151 1.97845 6.54462 1.89149 6.47773C1.81122 6.41084 1.73096 6.33726 1.65069 6.257C1.57712 6.18342 1.50354 6.10316 1.42996 6.0162C1.36307 5.92925 1.29618 5.84898 1.23598 5.75534C1.17578 5.66838 1.12227 5.57474 1.06876 5.47441C1.01525 5.38076 0.968431 5.28043 0.928298 5.1801C0.888165 5.07976 0.848032 4.97943 0.821277 4.87241C0.787833 4.77208 0.761077 4.66506 0.741011 4.55803C0.720944 4.45101 0.700878 4.34399 0.694189 4.23697C0.694189 4.14333 0.6875 4.03631 0.6875 3.92928C0.6875 3.82226 0.694189 3.71524 0.700878 3.60822C0.714255 3.5012 0.727633 3.39418 0.7477 3.28716C0.767766 3.18013 0.794521 3.07311 0.827966 2.97278C0.86141 2.87245 0.894854 2.76543 0.934987 2.66509C0.97512 2.56476 1.02194 2.46443 1.07545 2.37079C1.12896 2.27714 1.18247 2.1835 1.24267 2.08985C1.30287 2.0029 1.36976 1.91595 1.43665 1.82899C1.50354 1.74204 1.57712 1.66846 1.65738 1.58819C1.73096 1.51461 1.81122 1.44104 1.89818 1.36746C1.98513 1.30057 2.0654 1.23368 2.15904 1.17348C2.246 1.11328 2.33964 1.05977 2.43997 1.00626C2.54031 0.952753 2.63395 0.905931 2.73428 0.865798C2.83462 0.825665 2.93495 0.785532 3.04197 0.758777C3.1423 0.725333 3.24932 0.698577 3.35635 0.678511C3.46337 0.658444 3.57039 0.638378 3.67741 0.631689C3.77105 0.631689 3.88476 0.625 3.99178 0.625C4.09881 0.625 4.20583 0.631689 4.31285 0.638378C4.41987 0.651755 4.52689 0.665133 4.63391 0.6852C4.74093 0.705266 4.84796 0.732021 4.94829 0.765466C5.04862 0.79891 5.15564 0.832354 5.25597 0.872487C5.35631 0.91262 5.45664 0.959442 5.55028 1.01295C5.64393 1.06646 5.73757 1.11997 5.83121 1.18017C5.92486 1.24037 6.00512 1.30726 6.09208 1.37415C6.17235 1.44104 6.25261 1.51461 6.33288 1.59488C6.40645 1.66846 6.48003 1.74872 6.55361 1.83568C6.6205 1.92263 6.68739 2.0029 6.74758 2.09654C6.80778 2.1835 6.8613 2.27714 6.91481 2.37747C6.96832 2.47112 7.01514 2.57145 7.05527 2.67178C7.0954 2.77212 7.13554 2.87245 7.16229 2.97947C7.19574 3.0798 7.22249 3.18682 7.24256 3.29385C7.26263 3.40087 7.28269 3.50789 7.28938 3.61491C7.30276 3.72193 7.30276 3.82895 7.30276 3.93597C7.30276 4.04299 7.29607 4.15002 7.28938 4.25704C7.28269 4.36406 7.26263 4.47108 7.24256 4.5781C7.22249 4.68512 7.19574 4.79214 7.16229 4.89248C7.12885 4.99281 7.0954 5.09983 7.05527 5.20016C7.01514 5.3005 6.96832 5.40083 6.91481 5.49447C6.8613 5.58812 6.80778 5.68176 6.74758 5.7754C6.68739 5.86236 6.6205 5.94931 6.55361 6.03627C6.48672 6.12322 6.41314 6.1968 6.33288 6.27707C6.2593 6.35064 6.17903 6.42422 6.09208 6.4978C6.00512 6.56469 5.92486 6.63157 5.83121 6.69177C5.74426 6.75197 5.65062 6.80548 5.55028 6.85899C5.45664 6.9125 5.35631 6.95933 5.25597 6.99946C5.15564 7.03959 5.05531 7.07973 4.94829 7.10648C4.84796 7.13993 4.74093 7.16668 4.63391 7.18675C4.52689 7.20681 4.41987 7.22688 4.31285 7.23357C4.20583 7.22688 4.09881 7.22688 3.99178 7.22688Z"/>
</svg>
