<svg aria-hidden="true" style="width:0;height:0;position:absolute;overflow:hidden" xmlns="http://www.w3.org/2000/svg"><defs><symbol id="audio" viewBox="0 0 42 32"><path stroke-linejoin="round" stroke-linecap="round" stroke-miterlimit="10" stroke-width="1.6" d="M30.317 23.565c2.102-1.94 3.395-4.608 3.395-7.518s-1.293-5.578-3.395-7.437M35.492 26.96c3.072-2.749 4.77-6.71 4.77-10.833s-1.779-8.084-4.77-10.914M9.457 9.417l14.309-8.084c.243-.162.404-.081.485 0s.242.162.242.404v28.699c0 .243-.162.404-.242.404-.081.081-.243.162-.485 0L9.457 22.837m-7.599-1.94v-9.62c0-1.051.889-1.94 1.94-1.94h5.74v13.501H3.717c-1.051 0-1.859-.808-1.859-1.94zM15.925 10.387l4.931-2.506"/></symbol><symbol id="logo" viewBox="0 0 113 32"><path d="m112.911 30.829-10.759.036-10.607-12.994.278 12.98h-8.346V10.239l8.037-.053-.079 3.143 10.69-11.511 9.969.03-13.301 13.218 14.117 15.763zM81.745 10.247h-7.432v20.664h7.432V10.247zM78.676 3.956c0-2.173 1.63-3.85 4.096-3.849s4.093 1.566 4.092 3.736c0 2.287-1.63 3.964-4.096 3.963s-4.093-1.677-4.092-3.85zM72.94 19.09v11.82h-7.43V20.273c0-2.973-1.328-4.233-3.478-4.234-2.383 0-4.225 1.447-4.226 4.878l-.006 9.989h-7.432l.011-20.665 7.083-.001v2.25c1.682-1.714 4.068-2.59 6.728-2.588 4.961-.001 8.754 2.784 8.75 9.189zM7.775 10.207H.343v20.664h7.432V10.207zM19.289 10.787c2.815 0 6.02.878 8.016 2.978l-2.858 4.421c-1.173-1.106-2.971-1.909-4.732-1.909-3.205 0-4.811 2.36-4.812 4.686s1.64 4.881 5.043 4.882c1.954 0 4.068-1.141 5.518-2.36l2.462 4.615c-1.997 1.981-5.282 3.237-8.646 3.236-7.196 0-11.22-4.891-11.217-10.3-.005-5.262 3.989-10.253 11.225-10.25z"/><path d="M26.283 20.513c0-6.214 5.051-10.635 11.975-10.631 6.999 0 11.963 4.429 11.959 10.645 0 6.252-4.972 10.71-11.971 10.706-6.923-.004-11.966-4.467-11.963-10.72zm16.428.009c0-3.127-1.912-4.881-4.453-4.882-2.508 0-4.461 1.756-4.463 4.877 0 3.165 1.955 4.957 4.458 4.959 2.533.002 4.453-1.788 4.455-4.952l.004-.001zM.299 3.956c0-2.173 1.63-3.85 4.096-3.849s4.092 1.566 4.091 3.736c0 2.287-1.63 3.964-4.095 3.963S.298 6.129.299 3.956z"/></symbol><symbol id="angle-arrow" viewBox="0 0 32 32"><path stroke-linecap="square" stroke-width="2.824" d="M6.259 1.575h23.388v21.83"/><path stroke-linejoin="round" stroke-linecap="square" stroke-width="2.824" d="M28.89 2.42 2.911 28.236"/></symbol><symbol id="refresh-arrows" viewBox="0 0 32 32"><path d="M30.706 15.217C30.706 6.9 23.964.158 15.647.158v3.765c6.238 0 11.294 5.056 11.294 11.294 0 3.119-1.264 5.942-3.308 7.986l-.457.457v-4.678h-3.765v11.294h11.294v-3.765h-5.057l.646-.646a15.012 15.012 0 0 0 4.411-10.648zM.588 15.217c0 8.317 6.742 15.059 15.059 15.059v-3.765c-6.238 0-11.294-5.056-11.294-11.294 0-3.119 1.264-5.942 3.308-7.986l.457-.457v4.678h3.765V.158H.589v3.765h5.057L5 4.569A15.012 15.012 0 0 0 .589 15.217z"/></symbol><symbol id="info" viewBox="0 0 8 32"><path d="M7.134 9.097H1.113v22.516h6.021V9.097zM4.121 7.46c-.11 0-.221-.007-.331-.014-.11-.014-.221-.028-.331-.048s-.221-.048-.325-.083c-.104-.035-.214-.069-.318-.11s-.207-.09-.304-.145a5.533 5.533 0 0 1-.29-.173c-.09-.062-.179-.131-.269-.2a3.68 3.68 0 0 1-.477-.477c-.069-.09-.138-.173-.2-.269a3.085 3.085 0 0 1-.173-.29c-.055-.097-.104-.2-.145-.304s-.083-.207-.11-.318c-.035-.104-.062-.214-.083-.325s-.041-.221-.048-.331c0-.097-.007-.207-.007-.318s.007-.221.014-.331c.014-.11.028-.221.048-.331s.048-.221.083-.325c.035-.104.069-.214.11-.318s.09-.207.145-.304c.055-.097.11-.193.173-.29.062-.09.131-.179.2-.269s.145-.166.228-.249c.076-.076.159-.152.249-.228.09-.069.173-.138.269-.2.09-.062.186-.117.29-.173s.2-.104.304-.145c.104-.041.207-.083.318-.11.104-.035.214-.062.325-.083s.221-.041.331-.048c.097 0 .214-.007.325-.007s.221.007.331.014c.11.014.221.028.331.048s.221.048.325.083c.104.035.214.069.318.11s.207.09.304.145c.097.055.193.11.29.173s.18.131.269.2a3.68 3.68 0 0 1 .477.477c.069.09.138.173.2.269.062.09.117.186.173.29.055.097.104.2.145.304s.083.207.11.318c.035.104.062.214.083.325s.041.221.048.331c.014.11.014.221.014.331s-.007.221-.014.331c-.007.11-.028.221-.048.331s-.048.221-.083.325c-.035.104-.069.214-.11.318s-.09.207-.145.304c-.055.097-.11.193-.173.29-.062.09-.131.18-.2.269s-.145.166-.228.249a4.018 4.018 0 0 1-.249.228c-.09.069-.173.138-.269.2-.09.062-.186.117-.29.173-.097.055-.2.104-.304.145s-.207.083-.318.11c-.104.035-.214.062-.325.083s-.221.041-.331.048c-.11-.007-.221-.007-.331-.007z"/></symbol><symbol id="mail" viewBox="0 0 32 32"><path stroke-linejoin="round" stroke-linecap="round" stroke-width="3" d="M30.5 5.334v21.611h-29V5.334m0-.279h29v.557L16 17.325 1.5 5.612v-.557z"/></symbol><symbol id="phone" viewBox="0 0 32 32"><path stroke-linejoin="round" stroke-linecap="round" stroke-miterlimit="10" stroke-width="3" d="M24.392 14.799c.049-1.573-.792-3.359-2.25-4.779-1.458-1.415-3.292-2.233-4.914-2.186m13.264 6.943c.141-2.586-1.553-5.991-4.317-8.676-2.808-2.728-6.231-4.338-8.925-4.197M6.116 3.8a.978.978 0 0 0-.687.274L2.417 7.003c-.55.535-.983 1.707-.908 2.459.007.062.763 6.581 7.745 13.371 6.7 6.513 13.398 7.243 13.464 7.249.773.072 1.676.008 2.528-.882l3.012-2.929a.928.928 0 0 0 0-1.337l-4.878-4.76c-.364-.353-1.01-.353-1.375 0l-.995.968c-.952.926-2.779 1.525-4.128 1.33-.25-.036-1.818.278-4.825-2.645-3.006-2.921-2.483-4.214-2.52-4.458-.201-1.335.387-3.06 1.369-4.013l.995-.967a.929.929 0 0 0 0-1.336L6.804 4.075a.974.974 0 0 0-.687-.275z"/></symbol><symbol id="user" viewBox="0 0 32 32"><path stroke-miterlimit="10" stroke-width="3" d="M30.4 31.346c0-8.776-5.512-12.167-14.4-12.167S1.6 22.57 1.6 31.346M10.529 7.779c0-3.231 2.678-5.875 5.95-5.875s5.801 2.644 5.95 5.875c0 3.231-2.678 5.875-5.95 5.875s-5.95-2.644-5.95-5.875z"/></symbol><symbol id="play" viewBox="0 0 18 32"><path stroke-width="2" d="M24 16 1 29.279V2.721L24 16z"/></symbol><symbol id="checkmark" viewBox="0 0 32 32"><path d="M29.148 6.19a1.933 1.933 0 0 1 0 2.734L12.261 25.811a1.931 1.931 0 0 1-2.734 0l-6.676-6.676a1.933 1.933 0 1 1 2.734-2.734l5.309 5.309 15.52-15.52a1.932 1.932 0 0 1 2.733 0z"/></symbol><symbol id="city" viewBox="0 0 32 32"><path stroke-linejoin="round" stroke-linecap="round" stroke-miterlimit="10" stroke-width=".397" d="M29.069 27.737V13.204l-2.536-2.237M25.02 10.967l-1.875 1.641M25.725 14.717V8.239M24.935 12.884l-.725.618v1.492"/><path stroke-linejoin="round" stroke-linecap="round" stroke-miterlimit="10" stroke-width=".397" d="M27.322 14.973v-1.492l-.724-.618M23.934 15.655h5.157M24.892 17.828H23.89M24.892 19.789H23.89M24.892 21.728H23.89M24.892 23.688H23.89M24.892 25.627H23.89M27.64 17.828h-1.002M27.683 19.789h-1.066M27.64 21.728h-1.002M27.64 23.688h-1.002M27.64 25.627h-1.002M21.738 27.737c.021-.128 1.641-13.467-1.215-19.029h-2.387v19.093M18.011 10.093l-1.769 1.342v16.429"/><path stroke-linejoin="round" stroke-linecap="round" stroke-miterlimit="10" stroke-width=".397" d="M19.692 14.93h.554v.597h-.554v-.597zM19.692 16.955h.554v.597h-.554v-.597zM19.692 19.022h.554v.597h-.554v-.597zM19.692 21.046h.554v.597h-.554v-.597zM19.692 23.07h.554v.597h-.554v-.597zM19.692 25.116h.554v.597h-.554v-.597zM12.747 12.778c.895-3.644 1.129-7.117 1.172-7.991l-3.644-1.151"/><path stroke-linejoin="round" stroke-linecap="round" stroke-miterlimit="10" stroke-width=".397" d="M13.919 27.843c-2.11-10.122-3.623-24.079-3.644-24.207M7.952 21.472 6.418 28.27M9.699 3.764l-1.598.746c-.17 1.428-1.364 12.423 2.749 23.312M7.93 7.301l2.642-.682M7.802 10.817l3.303-.618M7.971 14.419l3.58-.618M8.442 18.468l3.687-.661M9.124 22.111l3.601-.661M9.975 25.308l3.324-.639M10.872 27.865h14.916M4.392 15.441c-.341 0-.639.213-.874.447-.234-.234-.554-.447-.874-.447M6.437 16.614c-.32 0-.639.213-.874.448-.234-.234-.554-.448-.874-.448M23.613 6.492l-.682 1.023h-.341l.17-1.002m-.042-1.428-.192-1.023h.341l.746 1.023m-2.749-.532c.085 0 .17.043.213.107l.448.597c.128.17.341.277.554.277h.469l1.939.021c.085 0 .192.043.234.128s.043.192 0 .256c-.043.085-.128.128-.234.128H21.44c-.064 0-.107-.021-.149-.043s-.085-.085-.085-.128l-.49-1.342h.149z"/></symbol><symbol id="sheet-pen" viewBox="0 0 32 32"><path stroke-linejoin="round" stroke-linecap="round" stroke-miterlimit="10" stroke-width=".397" d="M22.959 16.017V8.201l-4.745-4.703H4.565c-.635 0-1.186.551-1.186 1.186v22.113c0 .889.72 1.61 1.61 1.61h16.784c.636 0 1.186-.551 1.186-1.186V20.17m-.276-11.813h-3.281a1.28 1.28 0 0 1-1.301-1.301V3.775M15.03 8.243H5.88M13.464 10.658H5.88M17.53 13.115H5.879M10.547 15.457H5.88M15.231 15.457h-2.794"/><path stroke-linejoin="round" stroke-linecap="round" stroke-miterlimit="10" stroke-width=".397" d="M26.797 16.267c.285-.36.63-.66.448-1.162l.698-.698c.432-.432.589-.987.157-1.419-.216-.216-.473-.294-.758-.294s-.513.166-.729.382l-.699.699m.883 2.492-8.627 8.625a.364.364 0 0 1-.153.092l-2.498.714c-.27.079-.276.074-.197-.197l.714-2.498a.353.353 0 0 1 .093-.155l8.877-8.877a.865.865 0 0 1 .908-.194m.883 2.49.06.06a.704.704 0 0 1 0 1.009l-1.742 1.742 1.682-2.811zm-.883-2.491 1.345 1.302m-11.2 7.869 1.957 2.037m2.906-2.844-2.045-2.042M5.455 24.188s.374.764 1.223 1.237 2.204.595 3.841-.387c1.374-.824 2.132-.645 2.638-.364s.728.721.728.721"/></symbol><symbol id="hands" viewBox="0 0 32 32"><path stroke-linejoin="round" stroke-linecap="round" stroke-miterlimit="10" stroke-width=".397" d="m21.868 16.374-3.143.372M10.345 24.08l-2.002-1.304M10.647 16.025l.791.256a2.147 2.147 0 0 0 1.653-.093l.279-.14c.396-.186.861-.233 1.281-.07l5.565 1.932c.07.024-.272.715-.304.779-.343.68-.899.883-1.633.679-.82-.229-1.627-.549-2.44-.806-.07-.023-.14-.023-.186.023-.047.023-.093.093-.116.14 0 .023-.349 1.304-1.49 1.909-.722.396-1.606.396-2.631.047m.206 4.357a.884.884 0 0 1-.777-1.585l2.735-1.336m.856 3.511-2.842 1.374c-.435.218-.963.031-1.181-.404s-.031-.994.404-1.181l.715-.342 5.128-2.517m-1.622 4.78-1.525.737c-.218.093-.466.124-.684.031-.218-.062-.404-.249-.497-.466s-.124-.466-.031-.684a.912.912 0 0 1 .466-.497l1.119-.559 3.709-1.829m7.417-1.271-1.49 1.281c-.931.861-1.896 1.881-3.037 2.44l-5.355 2.631c-.163.07-.419-.023-.582-.093-.506-.217-.662-1.191-.083-1.439l2.52-1.23m8.027-3.59-3.143-6.426 2.375-1.164 3.143 6.426-2.375 1.164zm-16.67-.024-2.491-.861 2.328-6.775 2.398.838.023.023.047.023-2.305 6.752z"/><path stroke-width=".397" d="M4.369 11.945a1.288 1.288 0 1 1-2.577 0 1.288 1.288 0 0 1 2.577 0zM29.943 11.341a2.181 2.181 0 1 1-4.362 0 2.181 2.181 0 0 1 4.362 0zM25.058 3.233a.503.503 0 1 1-1.005 0 .503.503 0 0 1 1.005 0zM20.216 8.757a3.598 3.598 0 1 1-7.196 0 3.598 3.598 0 0 1 7.196 0z"/><path stroke-linejoin="round" stroke-linecap="round" stroke-width=".397" d="M16.009 9.815c.198.277.357.495.476.674.02.059.079.079.139.079s.099-.02.139-.059l.476-.674c.218-.357.376-.575.456-.693.099-.178.178-.317.218-.436s.059-.238.059-.396c0-.238-.059-.476-.178-.674-.119-.218-.297-.376-.495-.495s-.436-.178-.674-.178c-.238 0-.476.059-.674.178-.218.119-.376.297-.495.495s-.178.436-.178.674c0 .139 0 .277.04.396s.119.258.238.416c.059.119.218.357.456.694z"/><path d="M16.627 8.611a.364.364 0 1 0 .001-.729.364.364 0 0 0-.001.729z"/><path stroke-miterlimit="10" stroke-width=".397" d="M8.085 3.39c1.132 0 2.061.929 2.061 2.061s-.929 2.061-2.061 2.061-2.061-.929-2.061-2.061.9-2.061 2.061-2.061z"/><path stroke-linejoin="round" stroke-linecap="round" stroke-miterlimit="10" stroke-width=".397" d="M8.086 4.377V5.48l.958.725"/><path stroke-linejoin="round" stroke-width=".397" d="m27.763 10.302.305.618.682.099-.494.481.117.68-.61-.321-.61.321.117-.68-.494-.481.682-.099.305-.618z"/></symbol><symbol id="wireless-connect" viewBox="0 0 32 32"><path stroke-linejoin="round" stroke-linecap="round" stroke-miterlimit="10" stroke-width=".397" d="M20.307 7.268c0-2.391-1.941-4.353-4.353-4.353s-4.332 1.962-4.332 4.353 1.941 4.353 4.353 4.353 4.332-1.962 4.332-4.353zM3.815 14.645c0-.715.593-1.308 1.308-1.308h6.948c.715 0 1.308.593 1.308 1.308M9.21 22.492l-.634 2.105-.633-2.105H9.21zm0 0h.511a2.164 2.164 0 0 1 1.901 2.146v2.166h-6.09v-2.166c0-1.104.817-2.003 1.88-2.146m-3.597 4.312V15.523h9.564v11.301m-.02.859c0 .715-.593 1.308-1.308 1.308H5.103a1.318 1.318 0 0 1-1.308-1.308m4.782-6.09a1.736 1.736 0 1 1 0-3.474 1.736 1.736 0 1 1 0 3.474zM18.568 14.645c0-.715.593-1.308 1.308-1.308h6.948c.715 0 1.308.593 1.308 1.308m-9.564 12.159V15.523h9.564v11.301m.001.859c0 .715-.593 1.308-1.308 1.308h-6.948a1.318 1.318 0 0 1-1.308-1.308m4.781-6.09a1.736 1.736 0 1 1 0-3.474 1.736 1.736 0 1 1 0 3.474zm.859.879c1.206 0 2.166.981 2.166 2.166v2.166h-6.069v-2.166c0-1.206.981-2.166 2.166-2.166h1.737zM23.352 24.209v-.879M23.352 25.946v-.879M5.551 10.742c.47 0 .879.388.879.879M5.551 9.005a2.62 2.62 0 0 1 2.616 2.616M5.551 7.268a4.356 4.356 0 0 1 4.353 4.353M25.517 11.62c0-.47.388-.879.879-.879M23.779 11.621a2.62 2.62 0 0 1 2.616-2.616M22.044 11.621a4.344 4.344 0 0 1 4.353-4.353M7.431 22.492h.531"/><path stroke-linejoin="round" stroke-linecap="round" stroke-miterlimit="10" stroke-width=".397" d="M15.973 11.62c-.797-1.717-2.514-4.353 0-8.685M15.993 11.62c.777-1.717 2.493-4.353-.02-8.685"/><path stroke-linejoin="round" stroke-linecap="round" stroke-miterlimit="10" stroke-width=".397" d="M19.384 4.611c-1.553.736-3.74 1.512-6.887.041M19.384 9.924c-1.553-.736-3.74-1.512-6.887-.041M11.805 7.247h8.481"/></symbol><symbol id="laptop" viewBox="0 0 34 32"><path stroke-linejoin="round" stroke-linecap="round" stroke-miterlimit="10" stroke-width=".397" d="M6.025 15.216V7.134h19.301M27.465 7.134h.903v13.644H6.025v-3.47"/><path stroke-linejoin="round" stroke-linecap="round" stroke-miterlimit="10" stroke-width=".397" d="M10.542 23.678h22.391c-.19 1.806-1.711 3.28-3.613 3.28H5.075c-1.902 0-3.423-1.426-3.613-3.28h4.231m-1.854 0V6.041c0-.618.523-1.093 1.093-1.093h24.483c.618 0 1.094.523 1.094 1.093v17.637"/><path stroke-linejoin="round" stroke-linecap="round" stroke-miterlimit="10" stroke-width=".397" d="M26.184 11.841h-8.937v2.187h8.937v-2.187zM17.247 9.892h5.752M26.184 15.834h-8.937v2.187h8.937v-2.187zM10.78 11.288l2.71 3.375-1.141-.048a.204.204 0 0 0-.19.19v.048l.475 1.759-.808.238-.475-1.759c0-.095-.095-.143-.19-.143h-.048l-.998.618.666-4.279z"/></symbol><symbol id="next-arrow" viewBox="0 0 34 32"><path fill="none" stroke-miterlimit="10" stroke-width="1.5" d="M16.759 4.456s.232 11.436 15.419 12.151H.181"/><path fill="none" stroke-miterlimit="10" stroke-width="1.5" d="M17.248 27.543s.225-10.293 14.932-10.937"/></symbol><symbol id="prev-arrow" viewBox="0 0 34 32"><path fill="none" stroke-miterlimit="10" stroke-width="1.5" d="M17.199 4.456S16.967 15.892 1.78 16.607h31.997"/><path fill="none" stroke-miterlimit="10" stroke-width="1.5" d="M16.71 27.543S16.485 17.25 1.778 16.606"/></symbol><symbol id="clock" viewBox="0 0 29 32"><path fill="none" stroke-miterlimit="10" stroke-width="3.117" d="M14.546 3.964c7.077 0 12.883 5.807 12.883 12.883S21.622 29.73 14.546 29.73c-7.076 0-12.883-5.806-12.883-12.883S7.288 3.964 14.546 3.964z"/><path fill="none" stroke-linejoin="round" stroke-linecap="round" stroke-miterlimit="10" stroke-width="3.117" d="M14.546 10.134v6.895l5.988 4.536"/></symbol><symbol id="menu-burger" viewBox="0 0 70 32"><path d="M0 0h69.818v2.909H0V0zM0 29.091h69.818V32H0v-2.909zM0 14.545h69.818v2.909H0v-2.909z"/></symbol><symbol id="down-arrow" viewBox="0 0 46 32"><path d="m24.399 31.313 21.315-20.657V3.892L24.402 24.546 3.214 3.884v6.77l21.185 20.659z"/></symbol><symbol id="logo-text" viewBox="0 0 235 32"><path d="M1.336 30.578V2.731h17.791v3.81H5.378v7.813h11.429v3.81H5.378v8.605h13.749v3.81H1.336zM29.418 30.578 21.837 9.693h4.08l5.55 15.819 5.55-15.819h4.08l-7.58 20.885h-4.1zM53.09 31.158c-2.076 0-3.9-.451-5.473-1.354-1.56-.915-2.778-2.185-3.655-3.81-.864-1.637-1.296-3.532-1.296-5.685 0-2.282.425-4.261 1.276-5.937.864-1.676 2.063-2.972 3.597-3.887s3.32-1.373 5.357-1.373c2.127 0 3.938.496 5.434 1.489 1.495.98 2.611 2.379 3.345 4.196.748 1.818 1.044 3.977.89 6.478h-4.042v-1.47c-.026-2.424-.49-4.216-1.392-5.376-.89-1.16-2.25-1.74-4.08-1.74-2.024 0-3.545.638-4.564 1.915s-1.528 3.12-1.528 5.531c0 2.295.509 4.074 1.528 5.337 1.018 1.251 2.488 1.876 4.409 1.876 1.263 0 2.353-.284 3.268-.851.928-.58 1.65-1.405 2.166-2.475l3.964 1.257c-.812 1.869-2.043 3.32-3.694 4.351-1.651 1.018-3.487 1.528-5.511 1.528zm-7.446-9.881v-3.152h14.91v3.152h-14.91zM80.996 30.578V20.309c0-.812-.071-1.644-.213-2.495a7.473 7.473 0 0 0-.773-2.398 4.538 4.538 0 0 0-1.605-1.779c-.683-.451-1.579-.677-2.688-.677a5.74 5.74 0 0 0-2.05.367 4.265 4.265 0 0 0-1.702 1.141c-.477.529-.857 1.225-1.141 2.089-.271.864-.406 1.915-.406 3.152l-2.514-.948c0-1.895.355-3.565 1.063-5.009.709-1.457 1.728-2.591 3.056-3.404s2.933-1.218 4.815-1.218c1.444 0 2.656.232 3.636.696s1.773 1.076 2.379 1.837c.619.748 1.089 1.566 1.412 2.456s.541 1.76.658 2.611c.116.851.174 1.599.174 2.243v11.603h-4.1zm-14.678 0V9.693h3.616v6.034h.483v14.852h-4.1zM102.083 30.578c-1.315.258-2.604.367-3.867.329s-2.391-.284-3.384-.735-1.74-1.16-2.243-2.127c-.451-.864-.696-1.74-.735-2.63-.026-.902-.039-1.921-.039-3.055V3.892h4.061v18.275c0 .838.006 1.566.019 2.185.026.619.161 1.141.406 1.566.464.799 1.199 1.257 2.205 1.373 1.018.103 2.211.058 3.577-.135v3.423zM87.812 12.942V9.693h14.271v3.249H87.812zM112.296 30.578l9.05-27.847h5.821l9.05 27.847h-4.196l-8.335-25.41h1.044l-8.238 25.41h-4.196zm4.699-6.285v-3.79h14.542v3.79h-14.542zM150.882 30.578c-1.315.258-2.604.367-3.868.329s-2.391-.284-3.384-.735-1.74-1.16-2.243-2.127c-.451-.864-.696-1.74-.735-2.63-.026-.902-.039-1.921-.039-3.055V3.892h4.061v18.275c0 .838.007 1.566.02 2.185.026.619.161 1.141.406 1.566.464.799 1.199 1.257 2.204 1.373 1.019.103 2.211.058 3.578-.135v3.423zM136.61 12.942V9.693h14.272v3.249H136.61zM163.604 31.158c-2.076 0-3.9-.451-5.473-1.354-1.56-.915-2.778-2.185-3.655-3.81-.864-1.637-1.296-3.532-1.296-5.685 0-2.282.426-4.261 1.276-5.937.864-1.676 2.063-2.972 3.597-3.887s3.32-1.373 5.357-1.373c2.127 0 3.939.496 5.434 1.489 1.495.98 2.611 2.379 3.345 4.196.748 1.818 1.044 3.977.89 6.478h-4.042v-1.47c-.026-2.424-.49-4.216-1.392-5.376-.89-1.16-2.25-1.74-4.08-1.74-2.024 0-3.545.638-4.564 1.915s-1.527 3.12-1.527 5.531c0 2.295.509 4.074 1.527 5.337 1.019 1.251 2.488 1.876 4.409 1.876 1.263 0 2.353-.284 3.268-.851.928-.58 1.65-1.405 2.166-2.475l3.964 1.257c-.812 1.869-2.043 3.32-3.694 4.351-1.65 1.018-3.487 1.528-5.511 1.528zm-7.445-9.881v-3.152h14.91v3.152h-14.91zM177.805 30.578V2.151h4.042v28.427h-4.042zM188.041 6.27V2.344h4.042V6.27h-4.042zm0 24.308V9.693h4.042v20.885h-4.042zM207.152 31.158c-2.076 0-3.9-.451-5.473-1.354-1.56-.915-2.778-2.185-3.655-3.81-.864-1.637-1.296-3.532-1.296-5.685 0-2.282.426-4.261 1.276-5.937.864-1.676 2.063-2.972 3.597-3.887s3.32-1.373 5.357-1.373c2.127 0 3.939.496 5.434 1.489 1.495.98 2.611 2.379 3.345 4.196.748 1.818 1.044 3.977.89 6.478h-4.042v-1.47c-.026-2.424-.49-4.216-1.392-5.376-.89-1.16-2.25-1.74-4.08-1.74-2.024 0-3.545.638-4.564 1.915s-1.527 3.12-1.527 5.531c0 2.295.509 4.074 1.527 5.337 1.019 1.251 2.488 1.876 4.409 1.876 1.263 0 2.353-.284 3.268-.851.928-.58 1.65-1.405 2.166-2.475l3.964 1.257c-.812 1.869-2.043 3.32-3.694 4.351-1.65 1.018-3.487 1.528-5.511 1.528zm-7.445-9.881v-3.152h14.91v3.152h-14.91zM220.967 30.578V9.693h3.597v5.067l-.503-.658a7.664 7.664 0 0 1 1.006-1.837 5.634 5.634 0 0 1 1.431-1.392 6.115 6.115 0 0 1 1.76-.89 7.73 7.73 0 0 1 2.011-.387 7.668 7.668 0 0 1 1.973.097v3.79c-.683-.18-1.444-.232-2.282-.155a4.992 4.992 0 0 0-2.282.793 5.128 5.128 0 0 0-1.566 1.547 6.555 6.555 0 0 0-.812 2.031 10.48 10.48 0 0 0-.251 2.34v10.539h-4.08z"/></symbol><symbol id="cross" viewBox="0 0 32 32"><path d="M32 3.223 28.777 0 16 12.777 3.223 0 0 3.223 12.777 16 0 28.777 3.223 32 16 19.223 28.777 32 32 28.777 19.223 16 32 3.223z"/></symbol><symbol id="add-icon" viewBox="0 0 34 32"><path d="M16 0h2v32h-2V0z"/><path d="M1 17v-2h32v2H1z"/></symbol></defs></svg>