<svg width="8" height="31" xmlns="http://www.w3.org/2000/svg"><path d="M6.91 8.813H1.079v21.812h5.833V8.813ZM3.992 7.227c-.107 0-.214-.007-.321-.014-.107-.013-.214-.026-.321-.046a2.403 2.403 0 0 1-.315-.08c-.1-.034-.207-.067-.307-.108-.1-.04-.201-.087-.295-.14a6.199 6.199 0 0 1-.28-.167c-.088-.06-.175-.127-.262-.194a3.61 3.61 0 0 1-.461-.462c-.067-.087-.134-.167-.194-.26a2.832 2.832 0 0 1-.167-.282 2.374 2.374 0 0 1-.14-.294c-.04-.1-.081-.2-.108-.308-.033-.1-.06-.207-.08-.314a2.653 2.653 0 0 1-.047-.321c0-.094-.006-.2-.006-.308 0-.107.006-.214.013-.32.013-.108.027-.215.047-.322.02-.107.047-.214.08-.314s.067-.208.107-.308c.04-.1.087-.2.14-.294.054-.094.107-.188.168-.281.06-.087.127-.174.194-.261a3.934 3.934 0 0 1 .462-.462c.086-.066.166-.133.26-.194.087-.06.18-.113.281-.167.1-.053.194-.1.294-.14.1-.04.201-.08.308-.107.1-.034.207-.06.314-.08.107-.02.214-.04.321-.047.094 0 .208-.007.315-.007.107 0 .214.007.32.013.108.014.215.027.322.047.107.02.214.047.314.08.1.034.208.067.308.107.1.04.2.087.294.141.094.053.188.107.281.167.094.06.174.127.261.194a3.607 3.607 0 0 1 .462.462c.066.087.133.167.194.26.06.087.113.181.167.281.053.094.1.194.14.295.04.1.08.2.107.307.034.1.06.208.08.315.02.107.04.214.047.32.014.108.014.215.014.322 0 .107-.007.214-.014.321a2.653 2.653 0 0 1-.046.321c-.02.107-.047.214-.08.314-.034.1-.068.208-.108.308-.04.1-.087.2-.14.294a6.193 6.193 0 0 1-.167.281c-.06.087-.128.174-.194.261-.067.087-.14.16-.221.241a3.94 3.94 0 0 1-.24.22c-.088.068-.168.135-.262.195a2.83 2.83 0 0 1-.28.167c-.094.053-.195.1-.295.14-.1.04-.2.08-.308.107-.1.034-.207.06-.314.08-.107.02-.214.04-.321.048-.107-.007-.214-.007-.321-.007Z"/></svg>